{
  "accessors": [
    {
      "bufferView": 2,
      "componentType": 5126,
      "count": 1155,
      "max": [
        7.7594776153564453,
        4.4269280433654785,
        4.7775998115539551
      ],
      "min": [
        -7.7623562812805176,
        -4.5362157821655273,
        0
      ],
      "type": "VEC3"
    },
    {
      "bufferView": 2,
      "byteOffset": 13860,
      "componentType": 5126,
      "count": 1155,
      "max": [
        0.99995285272598267,
        0.98655152320861816,
        0.99996674060821533
      ],
      "min": [
        -0.99995291233062744,
        -0.98003858327865601,
        -0.99991703033447266
      ],
      "type": "VEC3"
    },
    {
      "bufferView": 1,
      "componentType": 5126,
      "count": 1155,
      "max": [
        0,
        0
      ],
      "min": [
        0,
        0
      ],
      "type": "VEC2"
    },
    {
      "bufferView": 0,
      "componentType": 5125,
      "count": 4272,
      "max": [
        1154
      ],
      "min": [
        0
      ],
      "type": "SCALAR"
    },
    {
      "bufferView": 2,
      "byteOffset": 27720,
      "componentType": 5126,
      "count": 170,
      "max": [
        0.69679915904998779,
        3.6391966342926025,
        3.2069344520568848
      ],
      "min": [
        -0.69679385423660278,
        0.95650511980056763,
        2.1889994144439697
      ],
      "type": "VEC3"
    },
    {
      "bufferView": 2,
      "byteOffset": 29760,
      "componentType": 5126,
      "count": 170,
      "max": [
        0.91470688581466675,
        0.99633270502090454,
        0.99995237588882446
      ],
      "min": [
        -0.91471076011657715,
        -0.59198033809661865,
        -0.9651980996131897
      ],
      "type": "VEC3"
    },
    {
      "bufferView": 1,
      "byteOffset": 9240,
      "componentType": 5126,
      "count": 170,
      "max": [
        0,
        0
      ],
      "min": [
        0,
        0
      ],
      "type": "VEC2"
    },
    {
      "bufferView": 0,
      "byteOffset": 17088,
      "componentType": 5125,
      "count": 864,
      "max": [
        169
      ],
      "min": [
        0
      ],
      "type": "SCALAR"
    },
    {
      "bufferView": 2,
      "byteOffset": 31800,
      "componentType": 5126,
      "count": 9054,
      "max": [
        6.4929051399230957,
        4.3499264717102051,
        4.5780749320983887
      ],
      "min": [
        -6.4928932189941406,
        -3.0095541477203369,
        0.1962512880563736
      ],
      "type": "VEC3"
    },
    {
      "bufferView": 2,
      "byteOffset": 140448,
      "componentType": 5126,
      "count": 9054,
      "max": [
        1,
        1,
        1
      ],
      "min": [
        -1,
        -1,
        -1
      ],
      "type": "VEC3"
    },
    {
      "bufferView": 1,
      "byteOffset": 10600,
      "componentType": 5126,
      "count": 9054,
      "max": [
        1.0049840211868286,
        1
      ],
      "min": [
        0,
        0
      ],
      "type": "VEC2"
    },
    {
      "bufferView": 0,
      "byteOffset": 20544,
      "componentType": 5125,
      "count": 19968,
      "max": [
        9053
      ],
      "min": [
        0
      ],
      "type": "SCALAR"
    },
    {
      "bufferView": 2,
      "byteOffset": 249096,
      "componentType": 5126,
      "count": 536,
      "max": [
        6.0051674842834473,
        -1.7124999761581421,
        4.2443375587463379
      ],
      "min": [
        -6.0051794052124023,
        -2.6874995231628418,
        2.4522981643676758
      ],
      "type": "VEC3"
    },
    {
      "bufferView": 2,
      "byteOffset": 255528,
      "componentType": 5126,
      "count": 536,
      "max": [
        0.99617296457290649,
        1,
        0.99113690853118896
      ],
      "min": [
        -0.99617296457290649,
        -1,
        -0.30075639486312866
      ],
      "type": "VEC3"
    },
    {
      "bufferView": 1,
      "byteOffset": 83032,
      "componentType": 5126,
      "count": 536,
      "max": [
        1,
        1
      ],
      "min": [
        0,
        0
      ],
      "type": "VEC2"
    },
    {
      "bufferView": 0,
      "byteOffset": 100416,
      "componentType": 5125,
      "count": 1512,
      "max": [
        535
      ],
      "min": [
        0
      ],
      "type": "SCALAR"
    },
    {
      "bufferView": 2,
      "byteOffset": 261960,
      "componentType": 5126,
      "count": 303,
      "max": [
        1.9314972162246704,
        4.1498727798461914,
        2.8003051280975342
      ],
      "min": [
        -1.9316321611404419,
        -1.2519090175628662,
        0.22550855576992035
      ],
      "type": "VEC3"
    },
    {
      "bufferView": 2,
      "byteOffset": 265596,
      "componentType": 5126,
      "count": 303,
      "max": [
        0.99502766132354736,
        0.9942278265953064,
        0.8979308009147644
      ],
      "min": [
        -0.99888056516647339,
        -0.99905514717102051,
        -0.88393831253051758
      ],
      "type": "VEC3"
    },
    {
      "bufferView": 1,
      "byteOffset": 87320,
      "componentType": 5126,
      "count": 303,
      "max": [
        1,
        1
      ],
      "min": [
        0,
        0
      ],
      "type": "VEC2"
    },
    {
      "bufferView": 0,
      "byteOffset": 106464,
      "componentType": 5125,
      "count": 744,
      "max": [
        302
      ],
      "min": [
        0
      ],
      "type": "SCALAR"
    }
  ],
  "asset": {
    "extras": {
      "author": "razzie_mbessai (https://sketchfab.com/razzie_mbessai)",
      "license": "CC-BY-4.0 (http://creativecommons.org/licenses/by/4.0/)",
      "source": "https://sketchfab.com/3d-models/guardians-of-the-galaxy-warbird-spaceship-cda42feba4184e6ca51742fb992717d0",
      "title": "Guardians of the Galaxy Warbird spaceship"
    },
    "generator": "Sketchfab-9.75.0",
    "version": "2.0"
  },
  "bufferViews": [
    {
      "buffer": 0,
      "byteLength": 109440,
      "byteOffset": 0,
      "name": "floatBufferViews",
      "target": 34963
    },
    {
      "buffer": 0,
      "byteLength": 89744,
      "byteOffset": 109440,
      "byteStride": 8,
      "name": "floatBufferViews",
      "target": 34962
    },
    {
      "buffer": 0,
      "byteLength": 269232,
      "byteOffset": 199184,
      "byteStride": 12,
      "name": "floatBufferViews",
      "target": 34962
    }
  ],
  "buffers": [
    {
      "byteLength": 468416,
      "uri": "scene.bin"
    }
  ],
  "materials": [
    {
      "doubleSided": true,
      "emissiveFactor": [
        0,
        0,
        0
      ],
      "name": "NoName781_NoName737_Cylinder3",
      "pbrMetallicRoughness": {
        "baseColorFactor": [
          0.27843099999999998,
          0.29019600000000001,
          0.298039,
          1
        ],
        "metallicFactor": 0,
        "roughnessFactor": 1
      }
    },
    {
      "doubleSided": true,
      "emissiveFactor": [
        0,
        0,
        0
      ],
      "name": "NoName781_Cube30",
      "pbrMetallicRoughness": {
        "baseColorFactor": [
          0,
          0,
          0.121569,
          1
        ],
        "metallicFactor": 0,
        "roughnessFactor": 1
      }
    },
    {
      "doubleSided": true,
      "emissiveFactor": [
        0,
        0,
        0
      ],
      "name": "NoName781_NoName768_Cylinder7001",
      "pbrMetallicRoughness": {
        "baseColorFactor": [
          0,
          0,
          0,
          1
        ],
        "metallicFactor": 0,
        "roughnessFactor": 1
      }
    },
    {
      "doubleSided": true,
      "emissiveFactor": [
        0,
        0,
        0
      ],
      "name": "NoName781_NEWhULL",
      "pbrMetallicRoughness": {
        "baseColorFactor": [
          0.50196099999999999,
          0.50196099999999999,
          0.50196099999999999,
          1
        ],
        "metallicFactor": 0,
        "roughnessFactor": 1
      }
    },
    {
      "doubleSided": true,
      "emissiveFactor": [
        0,
        0,
        0
      ],
      "name": "NoName781_NoName765_NoName659",
      "pbrMetallicRoughness": {
        "baseColorFactor": [
          0.0156863,
          0.0156863,
          0.0156863,
          1
        ],
        "metallicFactor": 0,
        "roughnessFactor": 1
      }
    }
  ],
  "meshes": [
    {
      "primitives": [
        {
          "attributes": {
            "NORMAL": 1,
            "POSITION": 0,
            "TEXCOORD_0": 2
          },
          "indices": 3,
          "material": 3,
          "mode": 4
        }
      ]
    },
    {
      "primitives": [
        {
          "attributes": {
            "NORMAL": 5,
            "POSITION": 4,
            "TEXCOORD_0": 6
          },
          "indices": 7,
          "material": 4,
          "mode": 4
        }
      ]
    },
    {
      "primitives": [
        {
          "attributes": {
            "NORMAL": 9,
            "POSITION": 8,
            "TEXCOORD_0": 10
          },
          "indices": 11,
          "material": 0,
          "mode": 4
        }
      ]
    },
    {
      "primitives": [
        {
          "attributes": {
            "NORMAL": 13,
            "POSITION": 12,
            "TEXCOORD_0": 14
          },
          "indices": 15,
          "material": 2,
          "mode": 4
        }
      ]
    },
    {
      "primitives": [
        {
          "attributes": {
            "NORMAL": 17,
            "POSITION": 16,
            "TEXCOORD_0": 18
          },
          "indices": 19,
          "material": 1,
          "mode": 4
        }
      ]
    }
  ],
  "nodes": [
    {
      "children": [
        1
      ],
      "name": "RootNode (gltf orientation matrix)",
      "rotation": [
        -0.70710678118654746,
        -0,
        -0,
        0.70710678118654757
      ]
    },
    {
      "children": [
        2
      ],
      "matrix": [
        -1,
        2.832769343193999e-16,
        1.6081226229577292e-16,
        0,
        -2.832769343193999e-16,
        -1,
        1.6081226229577292e-16,
        0,
        1.6081226229577292e-16,
        1.6081226229577292e-16,
        1,
        0,
        -0.0028924942016601562,
        -0.10930252075195312,
        0,
        1
      ],
      "name": "RootNode (model correction matrix)"
    },
    {
      "children": [
        3,
        4,
        5,
        6,
        7
      ],
      "name": "WarbirdPREVIEW.obj.cleaner.materialmerger.gles"
    },
    {
      "mesh": 0,
      "name": ""
    },
    {
      "mesh": 1,
      "name": ""
    },
    {
      "mesh": 2,
      "name": ""
    },
    {
      "mesh": 3,
      "name": ""
    },
    {
      "mesh": 4,
      "name": ""
    }
  ],
  "scene": 0,
  "scenes": [
    {
      "name": "OSG_Scene",
      "nodes": [
        0
      ]
    }
  ]
}

