{
  "accessors": [
    {
      "bufferView": 2,
      "componentType": 5126,
      "count": 65532,
      "max": [
        8.7463788986206055,
        8.7463788986206055,
        110.92134094238281
      ],
      "min": [
        -8.7463788986206055,
        -8.7463788986206055,
        28.461338043212891
      ],
      "type": "VEC3"
    },
    {
      "bufferView": 2,
      "byteOffset": 786384,
      "componentType": 5126,
      "count": 65532,
      "max": [
        1,
        0.99999994039535522,
        1
      ],
      "min": [
        -0.99999994039535522,
        -0.99999994039535522,
        -1
      ],
      "type": "VEC3"
    },
    {
      "bufferView": 1,
      "componentType": 5126,
      "count": 65532,
      "max": [
        1,
        1
      ],
      "min": [
        0,
        0
      ],
      "type": "VEC2"
    },
    {
      "bufferView": 0,
      "componentType": 5125,
      "count": 387954,
      "max": [
        65531
      ],
      "min": [
        0
      ],
      "type": "SCALAR"
    },
    {
      "bufferView": 2,
      "byteOffset": 1572768,
      "componentType": 5126,
      "count": 5976,
      "max": [
        8.7463788986206055,
        4.6865439414978027,
        110.92134094238281
      ],
      "min": [
        -0.030138319358229637,
        -0.030138319358229637,
        28.461338043212891
      ],
      "type": "VEC3"
    },
    {
      "bufferView": 2,
      "byteOffset": 1644480,
      "componentType": 5126,
      "count": 5976,
      "max": [
        1,
        0.53581172227859497,
        1
      ],
      "min": [
        -0.043780602514743805,
        -0.043780602514743805,
        -1
      ],
      "type": "VEC3"
    },
    {
      "bufferView": 1,
      "byteOffset": 524256,
      "componentType": 5126,
      "count": 5976,
      "max": [
        0.99000000953674316,
        1
      ],
      "min": [
        0,
        0.079088568687438965
      ],
      "type": "VEC2"
    },
    {
      "bufferView": 0,
      "byteOffset": 1551816,
      "componentType": 5125,
      "count": 31446,
      "max": [
        5975
      ],
      "min": [
        0
      ],
      "type": "SCALAR"
    },
    {
      "bufferView": 2,
      "byteOffset": 1716192,
      "componentType": 5126,
      "count": 707,
      "max": [
        3,
        3,
        -56.124874114990234
      ],
      "min": [
        -3,
        -3,
        -62.124874114990234
      ],
      "type": "VEC3"
    },
    {
      "bufferView": 2,
      "byteOffset": 1724676,
      "componentType": 5126,
      "count": 707,
      "max": [
        1,
        1,
        1
      ],
      "min": [
        -1,
        -1,
        -1
      ],
      "type": "VEC3"
    },
    {
      "bufferView": 1,
      "byteOffset": 572064,
      "componentType": 5126,
      "count": 707,
      "max": [
        1,
        1
      ],
      "min": [
        0,
        0
      ],
      "type": "VEC2"
    },
    {
      "bufferView": 0,
      "byteOffset": 1677600,
      "componentType": 5125,
      "count": 3000,
      "max": [
        706
      ],
      "min": [
        0
      ],
      "type": "SCALAR"
    },
    {
      "bufferView": 2,
      "byteOffset": 1733160,
      "componentType": 5126,
      "count": 1410,
      "max": [
        6,
        6,
        -56.124874114990234
      ],
      "min": [
        -6,
        -6,
        -62.124874114990234
      ],
      "type": "VEC3"
    },
    {
      "bufferView": 2,
      "byteOffset": 1750080,
      "componentType": 5126,
      "count": 1410,
      "max": [
        1,
        1,
        1
      ],
      "min": [
        -1,
        -1,
        -1
      ],
      "type": "VEC3"
    },
    {
      "bufferView": 1,
      "byteOffset": 577720,
      "componentType": 5126,
      "count": 1410,
      "max": [
        1,
        1
      ],
      "min": [
        0,
        0
      ],
      "type": "VEC2"
    },
    {
      "bufferView": 0,
      "byteOffset": 1689600,
      "componentType": 5125,
      "count": 6000,
      "max": [
        1409
      ],
      "min": [
        0
      ],
      "type": "SCALAR"
    },
    {
      "bufferView": 2,
      "byteOffset": 1767000,
      "componentType": 5126,
      "count": 1515,
      "max": [
        5,
        5,
        -61.724876403808594
      ],
      "min": [
        -5,
        -5,
        -62.724876403808594
      ],
      "type": "VEC3"
    },
    {
      "bufferView": 2,
      "byteOffset": 1785180,
      "componentType": 5126,
      "count": 1515,
      "max": [
        1,
        1,
        0.99881011247634888
      ],
      "min": [
        -1,
        -1,
        -0.99880999326705933
      ],
      "type": "VEC3"
    },
    {
      "bufferView": 1,
      "byteOffset": 589000,
      "componentType": 5126,
      "count": 1515,
      "max": [
        1,
        1
      ],
      "min": [
        0,
        0
      ],
      "type": "VEC2"
    },
    {
      "bufferView": 0,
      "byteOffset": 1713600,
      "componentType": 5125,
      "count": 8400,
      "max": [
        1514
      ],
      "min": [
        0
      ],
      "type": "SCALAR"
    },
    {
      "bufferView": 2,
      "byteOffset": 1803360,
      "componentType": 5126,
      "count": 1515,
      "max": [
        7,
        7,
        -61.724876403808594
      ],
      "min": [
        -7,
        -7,
        -62.724876403808594
      ],
      "type": "VEC3"
    },
    {
      "bufferView": 2,
      "byteOffset": 1821540,
      "componentType": 5126,
      "count": 1515,
      "max": [
        1,
        1,
        0.99872815608978271
      ],
      "min": [
        -1,
        -1,
        -0.99872797727584839
      ],
      "type": "VEC3"
    },
    {
      "bufferView": 1,
      "byteOffset": 601120,
      "componentType": 5126,
      "count": 1515,
      "max": [
        1,
        1
      ],
      "min": [
        0,
        0
      ],
      "type": "VEC2"
    },
    {
      "bufferView": 0,
      "byteOffset": 1747200,
      "componentType": 5125,
      "count": 8400,
      "max": [
        1514
      ],
      "min": [
        0
      ],
      "type": "SCALAR"
    },
    {
      "bufferView": 2,
      "byteOffset": 1839720,
      "componentType": 5126,
      "count": 1410,
      "max": [
        12.5,
        12.5,
        -55.224876403808594
      ],
      "min": [
        -12.5,
        -12.5,
        -56.224876403808594
      ],
      "type": "VEC3"
    },
    {
      "bufferView": 2,
      "byteOffset": 1856640,
      "componentType": 5126,
      "count": 1410,
      "max": [
        1,
        1,
        1
      ],
      "min": [
        -1,
        -1,
        -1
      ],
      "type": "VEC3"
    },
    {
      "bufferView": 1,
      "byteOffset": 613240,
      "componentType": 5126,
      "count": 1410,
      "max": [
        1,
        1
      ],
      "min": [
        0,
        0
      ],
      "type": "VEC2"
    },
    {
      "bufferView": 0,
      "byteOffset": 1780800,
      "componentType": 5125,
      "count": 6000,
      "max": [
        1409
      ],
      "min": [
        0
      ],
      "type": "SCALAR"
    },
    {
      "bufferView": 2,
      "byteOffset": 1873560,
      "componentType": 5126,
      "count": 1410,
      "max": [
        13,
        13,
        -60.924873352050781
      ],
      "min": [
        -13,
        -13,
        -62.924873352050781
      ],
      "type": "VEC3"
    },
    {
      "bufferView": 2,
      "byteOffset": 1890480,
      "componentType": 5126,
      "count": 1410,
      "max": [
        1,
        1,
        1
      ],
      "min": [
        -1,
        -1,
        -1
      ],
      "type": "VEC3"
    },
    {
      "bufferView": 1,
      "byteOffset": 624520,
      "componentType": 5126,
      "count": 1410,
      "max": [
        1,
        1
      ],
      "min": [
        0,
        0
      ],
      "type": "VEC2"
    },
    {
      "bufferView": 0,
      "byteOffset": 1804800,
      "componentType": 5125,
      "count": 6000,
      "max": [
        1409
      ],
      "min": [
        0
      ],
      "type": "SCALAR"
    },
    {
      "bufferView": 2,
      "byteOffset": 1907400,
      "componentType": 5126,
      "count": 65532,
      "max": [
        13,
        13,
        62.5
      ],
      "min": [
        -13,
        -13,
        -62.5
      ],
      "type": "VEC3"
    },
    {
      "bufferView": 2,
      "byteOffset": 2693784,
      "componentType": 5126,
      "count": 65532,
      "max": [
        1,
        1,
        1
      ],
      "min": [
        -1,
        -1,
        -1
      ],
      "type": "VEC3"
    },
    {
      "bufferView": 1,
      "byteOffset": 635800,
      "componentType": 5126,
      "count": 65532,
      "max": [
        1,
        0.97710812091827393
      ],
      "min": [
        0,
        0
      ],
      "type": "VEC2"
    },
    {
      "bufferView": 0,
      "byteOffset": 1828800,
      "componentType": 5125,
      "count": 387441,
      "max": [
        65531
      ],
      "min": [
        0
      ],
      "type": "SCALAR"
    },
    {
      "bufferView": 2,
      "byteOffset": 3480168,
      "componentType": 5126,
      "count": 22824,
      "max": [
        13,
        12.5,
        62.5
      ],
      "min": [
        -12.5,
        -12.5,
        -62.5
      ],
      "type": "VEC3"
    },
    {
      "bufferView": 2,
      "byteOffset": 3754056,
      "componentType": 5126,
      "count": 22824,
      "max": [
        1,
        0.99999994039535522,
        1
      ],
      "min": [
        -1,
        -0.99999994039535522,
        -1
      ],
      "type": "VEC3"
    },
    {
      "bufferView": 1,
      "byteOffset": 1160056,
      "componentType": 5126,
      "count": 22824,
      "max": [
        1,
        1
      ],
      "min": [
        0,
        0.19562208652496338
      ],
      "type": "VEC2"
    },
    {
      "bufferView": 0,
      "byteOffset": 3378564,
      "componentType": 5125,
      "count": 132159,
      "max": [
        22823
      ],
      "min": [
        0
      ],
      "type": "SCALAR"
    },
    {
      "bufferView": 2,
      "byteOffset": 4027944,
      "componentType": 5126,
      "count": 65532,
      "max": [
        8.3661012649536133,
        8.3661012649536133,
        110.91000366210938
      ],
      "min": [
        -8.3661012649536133,
        -8.3661012649536133,
        28.450000762939453
      ],
      "type": "VEC3"
    },
    {
      "bufferView": 2,
      "byteOffset": 4814328,
      "componentType": 5126,
      "count": 65532,
      "max": [
        1,
        1,
        1
      ],
      "min": [
        -1,
        -1,
        -1
      ],
      "type": "VEC3"
    },
    {
      "bufferView": 1,
      "byteOffset": 1342648,
      "componentType": 5126,
      "count": 65532,
      "max": [
        1,
        1
      ],
      "min": [
        0,
        0
      ],
      "type": "VEC2"
    },
    {
      "bufferView": 0,
      "byteOffset": 3907200,
      "componentType": 5125,
      "count": 387954,
      "max": [
        65531
      ],
      "min": [
        0
      ],
      "type": "SCALAR"
    },
    {
      "bufferView": 2,
      "byteOffset": 5600712,
      "componentType": 5126,
      "count": 5976,
      "max": [
        8.3661012649536133,
        4.4827814102172852,
        110.91000366210938
      ],
      "min": [
        -0.028827957808971405,
        -0.028827957808971405,
        28.450000762939453
      ],
      "type": "VEC3"
    },
    {
      "bufferView": 2,
      "byteOffset": 5672424,
      "componentType": 5126,
      "count": 5976,
      "max": [
        1,
        0.5358116626739502,
        1
      ],
      "min": [
        -0.045678678900003433,
        -0.045678678900003433,
        -1
      ],
      "type": "VEC3"
    },
    {
      "bufferView": 1,
      "byteOffset": 1866904,
      "componentType": 5126,
      "count": 5976,
      "max": [
        0.99000000953674316,
        1
      ],
      "min": [
        0,
        0.079088568687438965
      ],
      "type": "VEC2"
    },
    {
      "bufferView": 0,
      "byteOffset": 5459016,
      "componentType": 5125,
      "count": 31446,
      "max": [
        5975
      ],
      "min": [
        0
      ],
      "type": "SCALAR"
    }
  ],
  "asset": {
    "extras": {
      "author": "SmProduction (https://sketchfab.com/ms9390402)",
      "license": "CC-BY-4.0 (http://creativecommons.org/licenses/by/4.0/)",
      "source": "https://sketchfab.com/3d-models/50-bmg-bullet-127x99mm-nato-a7d51fc7631346b8addd13d9620b7dc6",
      "title": ".50 Bmg Bullet (12.7x99mm NATO)"
    },
    "generator": "Sketchfab-8.51.0",
    "version": "2.0"
  },
  "bufferViews": [
    {
      "buffer": 0,
      "byteLength": 5584800,
      "byteOffset": 0,
      "name": "floatBufferViews",
      "target": 34963
    },
    {
      "buffer": 0,
      "byteLength": 1914712,
      "byteOffset": 5584800,
      "byteStride": 8,
      "name": "floatBufferViews",
      "target": 34962
    },
    {
      "buffer": 0,
      "byteLength": 5744136,
      "byteOffset": 7499512,
      "byteStride": 12,
      "name": "floatBufferViews",
      "target": 34962
    }
  ],
  "buffers": [
    {
      "byteLength": 13243648,
      "uri": "scene.bin"
    }
  ],
  "images": [
    {
      "uri": "textures/Gold_metallicRoughness.png"
    },
    {
      "uri": "textures/Gold_1_metallicRoughness.png"
    }
  ],
  "materials": [
    {
      "doubleSided": true,
      "emissiveFactor": [
        0,
        0,
        0
      ],
      "name": "Gold",
      "pbrMetallicRoughness": {
        "baseColorFactor": [
          0.69288352541840115,
          0.33771501041603397,
          0.11442892813011771,
          1
        ],
        "metallicFactor": 1,
        "metallicRoughnessTexture": {
          "index": 0,
          "texCoord": 0
        },
        "roughnessFactor": 0.20324467094427778
      }
    },
    {
      "doubleSided": true,
      "emissiveFactor": [
        0,
        0,
        0
      ],
      "name": "Gold_1",
      "pbrMetallicRoughness": {
        "baseColorFactor": [
          0.41712625297240125,
          0.41712625297240125,
          0.41712625297240125,
          1
        ],
        "metallicFactor": 1,
        "metallicRoughnessTexture": {
          "index": 1,
          "texCoord": 0
        },
        "roughnessFactor": 0.50671270362171561
      }
    },
    {
      "doubleSided": true,
      "emissiveFactor": [
        0,
        0,
        0
      ],
      "name": "Gold_2",
      "pbrMetallicRoughness": {
        "baseColorFactor": [
          0.73421312874089462,
          0.44443620525297706,
          0.096725120070334153,
          1
        ],
        "metallicFactor": 1,
        "metallicRoughnessTexture": {
          "index": 1,
          "texCoord": 0
        },
        "roughnessFactor": 0.14900000000000002
      }
    },
    {
      "doubleSided": true,
      "emissiveFactor": [
        0,
        0,
        0
      ],
      "name": "Gold_3",
      "pbrMetallicRoughness": {
        "baseColorFactor": [
          0.73791040877273084,
          0.44520119451622753,
          0.097587347141862485,
          1
        ],
        "metallicFactor": 1,
        "metallicRoughnessTexture": {
          "index": 1,
          "texCoord": 0
        },
        "roughnessFactor": 0.14900000000000002
      }
    },
    {
      "doubleSided": true,
      "emissiveFactor": [
        0,
        0,
        0
      ],
      "name": "Gold_4",
      "pbrMetallicRoughness": {
        "baseColorFactor": [
          0.73791040877273084,
          0.44520119451622753,
          0.097587347141862485,
          1
        ],
        "metallicFactor": 1,
        "metallicRoughnessTexture": {
          "index": 1,
          "texCoord": 0
        },
        "roughnessFactor": 0.14900000000000002
      }
    },
    {
      "doubleSided": true,
      "emissiveFactor": [
        0,
        0,
        0
      ],
      "name": "RandomColor_1",
      "pbrMetallicRoughness": {
        "baseColorFactor": [
          0.73791040877273084,
          0.44520119451622753,
          0.097587347141862485,
          1
        ],
        "metallicFactor": 1,
        "metallicRoughnessTexture": {
          "index": 1,
          "texCoord": 0
        },
        "roughnessFactor": 0.14862042506233897
      }
    },
    {
      "doubleSided": true,
      "emissiveFactor": [
        0,
        0,
        0
      ],
      "name": "._.ekirdek",
      "pbrMetallicRoughness": {
        "baseColorFactor": [
          0.024261247034582201,
          0.024261247034582201,
          0.024261247034582201,
          1
        ],
        "metallicFactor": 1,
        "metallicRoughnessTexture": {
          "index": 1,
          "texCoord": 0
        },
        "roughnessFactor": 0.76457352348938312
      }
    }
  ],
  "meshes": [
    {
      "primitives": [
        {
          "attributes": {
            "NORMAL": 1,
            "POSITION": 0,
            "TEXCOORD_0": 2
          },
          "indices": 3,
          "material": 0,
          "mode": 4
        }
      ]
    },
    {
      "primitives": [
        {
          "attributes": {
            "NORMAL": 5,
            "POSITION": 4,
            "TEXCOORD_0": 6
          },
          "indices": 7,
          "material": 0,
          "mode": 4
        }
      ]
    },
    {
      "primitives": [
        {
          "attributes": {
            "NORMAL": 9,
            "POSITION": 8,
            "TEXCOORD_0": 10
          },
          "indices": 11,
          "material": 1,
          "mode": 4
        }
      ]
    },
    {
      "primitives": [
        {
          "attributes": {
            "NORMAL": 13,
            "POSITION": 12,
            "TEXCOORD_0": 14
          },
          "indices": 15,
          "material": 2,
          "mode": 4
        }
      ]
    },
    {
      "primitives": [
        {
          "attributes": {
            "NORMAL": 17,
            "POSITION": 16,
            "TEXCOORD_0": 18
          },
          "indices": 19,
          "material": 2,
          "mode": 4
        }
      ]
    },
    {
      "primitives": [
        {
          "attributes": {
            "NORMAL": 21,
            "POSITION": 20,
            "TEXCOORD_0": 22
          },
          "indices": 23,
          "material": 3,
          "mode": 4
        }
      ]
    },
    {
      "primitives": [
        {
          "attributes": {
            "NORMAL": 25,
            "POSITION": 24,
            "TEXCOORD_0": 26
          },
          "indices": 27,
          "material": 3,
          "mode": 4
        }
      ]
    },
    {
      "primitives": [
        {
          "attributes": {
            "NORMAL": 29,
            "POSITION": 28,
            "TEXCOORD_0": 30
          },
          "indices": 31,
          "material": 4,
          "mode": 4
        }
      ]
    },
    {
      "primitives": [
        {
          "attributes": {
            "NORMAL": 33,
            "POSITION": 32,
            "TEXCOORD_0": 34
          },
          "indices": 35,
          "material": 5,
          "mode": 4
        }
      ]
    },
    {
      "primitives": [
        {
          "attributes": {
            "NORMAL": 37,
            "POSITION": 36,
            "TEXCOORD_0": 38
          },
          "indices": 39,
          "material": 5,
          "mode": 4
        }
      ]
    },
    {
      "primitives": [
        {
          "attributes": {
            "NORMAL": 41,
            "POSITION": 40,
            "TEXCOORD_0": 42
          },
          "indices": 43,
          "material": 6,
          "mode": 4
        }
      ]
    },
    {
      "primitives": [
        {
          "attributes": {
            "NORMAL": 45,
            "POSITION": 44,
            "TEXCOORD_0": 46
          },
          "indices": 47,
          "material": 6,
          "mode": 4
        }
      ]
    }
  ],
  "nodes": [
    {
      "children": [
        1
      ],
      "name": "RootNode (gltf orientation matrix)",
      "rotation": [
        -0.70710678118654746,
        -0,
        -0,
        0.70710678118654757
      ]
    },
    {
      "children": [
        2
      ],
      "name": "RootNode (model correction matrix)"
    },
    {
      "children": [
        3,
        4,
        5,
        6,
        7,
        8,
        9,
        10,
        11,
        12,
        13,
        14
      ],
      "name": "50 Bmg.obj.cleaner.materialmerger.gles"
    },
    {
      "mesh": 0,
      "name": ""
    },
    {
      "mesh": 1,
      "name": ""
    },
    {
      "mesh": 2,
      "name": ""
    },
    {
      "mesh": 3,
      "name": ""
    },
    {
      "mesh": 4,
      "name": ""
    },
    {
      "mesh": 5,
      "name": ""
    },
    {
      "mesh": 6,
      "name": ""
    },
    {
      "mesh": 7,
      "name": ""
    },
    {
      "mesh": 8,
      "name": ""
    },
    {
      "mesh": 9,
      "name": ""
    },
    {
      "mesh": 10,
      "name": ""
    },
    {
      "mesh": 11,
      "name": ""
    }
  ],
  "samplers": [
    {
      "magFilter": 9729,
      "minFilter": 9987,
      "wrapS": 10497,
      "wrapT": 10497
    }
  ],
  "scene": 0,
  "scenes": [
    {
      "name": "OSG_Scene",
      "nodes": [
        0
      ]
    }
  ],
  "textures": [
    {
      "sampler": 0,
      "source": 0
    },
    {
      "sampler": 0,
      "source": 1
    }
  ]
}

